<mxfile host="app.diagrams.net" modified="2024-01-30T10:16:18.735Z" agent="Mozilla/5.0 (Windows NT 10.0; Win64; x64) AppleWebKit/537.36 (KHTML, like Gecko) Chrome/121.0.0.0 Safari/537.36" etag="hwaE08Ca1MyPlF2hGiM4" version="23.0.2" type="github">
  <diagram id="C5RBs43oDa-KdzZeNtuy" name="Page-1">
    <mxGraphModel dx="1688" dy="641" grid="1" gridSize="10" guides="1" tooltips="1" connect="1" arrows="1" fold="1" page="1" pageScale="1" pageWidth="827" pageHeight="1169" math="0" shadow="0">
      <root>
        <mxCell id="WIyWlLk6GJQsqaUBKTNV-0" />
        <mxCell id="WIyWlLk6GJQsqaUBKTNV-1" parent="WIyWlLk6GJQsqaUBKTNV-0" />
        <mxCell id="RH_T9AXYIxNcW1EHlBq4-13" style="edgeStyle=orthogonalEdgeStyle;rounded=0;orthogonalLoop=1;jettySize=auto;html=1;exitX=0.5;exitY=1;exitDx=0;exitDy=0;entryX=0.5;entryY=0;entryDx=0;entryDy=0;" edge="1" parent="WIyWlLk6GJQsqaUBKTNV-1" source="RH_T9AXYIxNcW1EHlBq4-0" target="RH_T9AXYIxNcW1EHlBq4-4">
          <mxGeometry relative="1" as="geometry" />
        </mxCell>
        <mxCell id="RH_T9AXYIxNcW1EHlBq4-0" value="Extract&lt;br&gt;Extension" style="rounded=1;whiteSpace=wrap;html=1;" vertex="1" parent="WIyWlLk6GJQsqaUBKTNV-1">
          <mxGeometry x="180" y="40" width="120" height="40" as="geometry" />
        </mxCell>
        <mxCell id="RH_T9AXYIxNcW1EHlBq4-25" style="edgeStyle=orthogonalEdgeStyle;rounded=0;orthogonalLoop=1;jettySize=auto;html=1;exitX=0.5;exitY=1;exitDx=0;exitDy=0;entryX=0.25;entryY=0;entryDx=0;entryDy=0;" edge="1" parent="WIyWlLk6GJQsqaUBKTNV-1" source="RH_T9AXYIxNcW1EHlBq4-1" target="RH_T9AXYIxNcW1EHlBq4-6">
          <mxGeometry relative="1" as="geometry" />
        </mxCell>
        <mxCell id="RH_T9AXYIxNcW1EHlBq4-1" value="Filtering" style="rounded=1;whiteSpace=wrap;html=1;" vertex="1" parent="WIyWlLk6GJQsqaUBKTNV-1">
          <mxGeometry x="100" y="280" width="120" height="40" as="geometry" />
        </mxCell>
        <mxCell id="RH_T9AXYIxNcW1EHlBq4-24" style="edgeStyle=orthogonalEdgeStyle;rounded=0;orthogonalLoop=1;jettySize=auto;html=1;exitX=0.5;exitY=1;exitDx=0;exitDy=0;entryX=0.5;entryY=0;entryDx=0;entryDy=0;" edge="1" parent="WIyWlLk6GJQsqaUBKTNV-1" source="RH_T9AXYIxNcW1EHlBq4-2" target="RH_T9AXYIxNcW1EHlBq4-1">
          <mxGeometry relative="1" as="geometry" />
        </mxCell>
        <mxCell id="RH_T9AXYIxNcW1EHlBq4-2" value="Regex&lt;br&gt;Search" style="rounded=1;whiteSpace=wrap;html=1;" vertex="1" parent="WIyWlLk6GJQsqaUBKTNV-1">
          <mxGeometry x="100" y="200" width="120" height="40" as="geometry" />
        </mxCell>
        <mxCell id="RH_T9AXYIxNcW1EHlBq4-23" style="edgeStyle=orthogonalEdgeStyle;rounded=0;orthogonalLoop=1;jettySize=auto;html=1;exitX=0.5;exitY=1;exitDx=0;exitDy=0;entryX=0.75;entryY=0;entryDx=0;entryDy=0;" edge="1" parent="WIyWlLk6GJQsqaUBKTNV-1" source="RH_T9AXYIxNcW1EHlBq4-3" target="RH_T9AXYIxNcW1EHlBq4-6">
          <mxGeometry relative="1" as="geometry">
            <Array as="points">
              <mxPoint x="320" y="360" />
              <mxPoint x="270" y="360" />
            </Array>
          </mxGeometry>
        </mxCell>
        <mxCell id="RH_T9AXYIxNcW1EHlBq4-3" value="Static&lt;br&gt;Analysis" style="rounded=1;whiteSpace=wrap;html=1;" vertex="1" parent="WIyWlLk6GJQsqaUBKTNV-1">
          <mxGeometry x="260" y="200" width="120" height="40" as="geometry" />
        </mxCell>
        <mxCell id="RH_T9AXYIxNcW1EHlBq4-11" style="edgeStyle=orthogonalEdgeStyle;rounded=0;orthogonalLoop=1;jettySize=auto;html=1;exitX=0.25;exitY=1;exitDx=0;exitDy=0;entryX=0.5;entryY=0;entryDx=0;entryDy=0;" edge="1" parent="WIyWlLk6GJQsqaUBKTNV-1" source="RH_T9AXYIxNcW1EHlBq4-4" target="RH_T9AXYIxNcW1EHlBq4-2">
          <mxGeometry relative="1" as="geometry" />
        </mxCell>
        <mxCell id="RH_T9AXYIxNcW1EHlBq4-14" style="edgeStyle=orthogonalEdgeStyle;rounded=0;orthogonalLoop=1;jettySize=auto;html=1;exitX=0.75;exitY=1;exitDx=0;exitDy=0;entryX=0.5;entryY=0;entryDx=0;entryDy=0;" edge="1" parent="WIyWlLk6GJQsqaUBKTNV-1" source="RH_T9AXYIxNcW1EHlBq4-4" target="RH_T9AXYIxNcW1EHlBq4-3">
          <mxGeometry relative="1" as="geometry" />
        </mxCell>
        <mxCell id="RH_T9AXYIxNcW1EHlBq4-4" value="Manifest Filtering" style="rounded=1;whiteSpace=wrap;html=1;" vertex="1" parent="WIyWlLk6GJQsqaUBKTNV-1">
          <mxGeometry x="180" y="120" width="120" height="40" as="geometry" />
        </mxCell>
        <mxCell id="RH_T9AXYIxNcW1EHlBq4-27" style="edgeStyle=orthogonalEdgeStyle;rounded=0;orthogonalLoop=1;jettySize=auto;html=1;exitX=0.5;exitY=1;exitDx=0;exitDy=0;" edge="1" parent="WIyWlLk6GJQsqaUBKTNV-1" source="RH_T9AXYIxNcW1EHlBq4-6" target="RH_T9AXYIxNcW1EHlBq4-7">
          <mxGeometry relative="1" as="geometry" />
        </mxCell>
        <mxCell id="RH_T9AXYIxNcW1EHlBq4-6" value="Classification" style="rounded=1;whiteSpace=wrap;html=1;" vertex="1" parent="WIyWlLk6GJQsqaUBKTNV-1">
          <mxGeometry x="180" y="400" width="120" height="40" as="geometry" />
        </mxCell>
        <mxCell id="RH_T9AXYIxNcW1EHlBq4-7" value="Dynamic&lt;br&gt;Analysis" style="rounded=1;whiteSpace=wrap;html=1;" vertex="1" parent="WIyWlLk6GJQsqaUBKTNV-1">
          <mxGeometry x="180" y="480" width="120" height="40" as="geometry" />
        </mxCell>
        <mxCell id="RH_T9AXYIxNcW1EHlBq4-18" value="Domains" style="shape=cylinder3;whiteSpace=wrap;html=1;boundedLbl=1;backgroundOutline=1;size=15;" vertex="1" parent="WIyWlLk6GJQsqaUBKTNV-1">
          <mxGeometry x="210" y="560" width="60" height="80" as="geometry" />
        </mxCell>
        <mxCell id="RH_T9AXYIxNcW1EHlBq4-33" style="edgeStyle=orthogonalEdgeStyle;rounded=0;orthogonalLoop=1;jettySize=auto;html=1;exitX=0.855;exitY=1;exitDx=0;exitDy=-4.35;exitPerimeter=0;entryX=0.5;entryY=0;entryDx=0;entryDy=0;" edge="1" parent="WIyWlLk6GJQsqaUBKTNV-1" source="RH_T9AXYIxNcW1EHlBq4-19" target="RH_T9AXYIxNcW1EHlBq4-29">
          <mxGeometry relative="1" as="geometry" />
        </mxCell>
        <mxCell id="RH_T9AXYIxNcW1EHlBq4-34" style="edgeStyle=orthogonalEdgeStyle;rounded=0;orthogonalLoop=1;jettySize=auto;html=1;exitX=0.145;exitY=1;exitDx=0;exitDy=-4.35;exitPerimeter=0;entryX=0.5;entryY=0;entryDx=0;entryDy=0;" edge="1" parent="WIyWlLk6GJQsqaUBKTNV-1" source="RH_T9AXYIxNcW1EHlBq4-19" target="RH_T9AXYIxNcW1EHlBq4-28">
          <mxGeometry relative="1" as="geometry" />
        </mxCell>
        <mxCell id="RH_T9AXYIxNcW1EHlBq4-19" value="Domains" style="shape=cylinder3;whiteSpace=wrap;html=1;boundedLbl=1;backgroundOutline=1;size=15;" vertex="1" parent="WIyWlLk6GJQsqaUBKTNV-1">
          <mxGeometry x="670" y="30" width="60" height="80" as="geometry" />
        </mxCell>
        <mxCell id="RH_T9AXYIxNcW1EHlBq4-20" style="edgeStyle=orthogonalEdgeStyle;rounded=0;orthogonalLoop=1;jettySize=auto;html=1;exitX=0.5;exitY=1;exitDx=0;exitDy=0;entryX=0.5;entryY=0;entryDx=0;entryDy=0;entryPerimeter=0;" edge="1" parent="WIyWlLk6GJQsqaUBKTNV-1" source="RH_T9AXYIxNcW1EHlBq4-7" target="RH_T9AXYIxNcW1EHlBq4-18">
          <mxGeometry relative="1" as="geometry" />
        </mxCell>
        <mxCell id="RH_T9AXYIxNcW1EHlBq4-45" style="edgeStyle=orthogonalEdgeStyle;rounded=0;orthogonalLoop=1;jettySize=auto;html=1;exitX=0.5;exitY=1;exitDx=0;exitDy=0;entryX=0.5;entryY=0;entryDx=0;entryDy=0;" edge="1" parent="WIyWlLk6GJQsqaUBKTNV-1" source="RH_T9AXYIxNcW1EHlBq4-22" target="RH_T9AXYIxNcW1EHlBq4-38">
          <mxGeometry relative="1" as="geometry" />
        </mxCell>
        <mxCell id="RH_T9AXYIxNcW1EHlBq4-22" value="Ping" style="rounded=1;whiteSpace=wrap;html=1;" vertex="1" parent="WIyWlLk6GJQsqaUBKTNV-1">
          <mxGeometry x="720" y="280" width="120" height="40" as="geometry" />
        </mxCell>
        <mxCell id="RH_T9AXYIxNcW1EHlBq4-28" value="Curl" style="rounded=1;whiteSpace=wrap;html=1;" vertex="1" parent="WIyWlLk6GJQsqaUBKTNV-1">
          <mxGeometry x="560" y="200" width="120" height="40" as="geometry" />
        </mxCell>
        <mxCell id="RH_T9AXYIxNcW1EHlBq4-44" style="edgeStyle=orthogonalEdgeStyle;rounded=0;orthogonalLoop=1;jettySize=auto;html=1;exitX=0.5;exitY=1;exitDx=0;exitDy=0;entryX=0.5;entryY=0;entryDx=0;entryDy=0;" edge="1" parent="WIyWlLk6GJQsqaUBKTNV-1" source="RH_T9AXYIxNcW1EHlBq4-29" target="RH_T9AXYIxNcW1EHlBq4-22">
          <mxGeometry relative="1" as="geometry" />
        </mxCell>
        <mxCell id="RH_T9AXYIxNcW1EHlBq4-29" value="DNS" style="rounded=1;whiteSpace=wrap;html=1;" vertex="1" parent="WIyWlLk6GJQsqaUBKTNV-1">
          <mxGeometry x="720" y="200" width="120" height="40" as="geometry" />
        </mxCell>
        <mxCell id="RH_T9AXYIxNcW1EHlBq4-30" style="edgeStyle=orthogonalEdgeStyle;rounded=0;orthogonalLoop=1;jettySize=auto;html=1;exitX=0.75;exitY=1;exitDx=0;exitDy=0;entryX=1;entryY=0;entryDx=0;entryDy=27.5;entryPerimeter=0;" edge="1" parent="WIyWlLk6GJQsqaUBKTNV-1" source="RH_T9AXYIxNcW1EHlBq4-3" target="RH_T9AXYIxNcW1EHlBq4-18">
          <mxGeometry relative="1" as="geometry" />
        </mxCell>
        <mxCell id="RH_T9AXYIxNcW1EHlBq4-31" style="edgeStyle=orthogonalEdgeStyle;rounded=0;orthogonalLoop=1;jettySize=auto;html=1;exitX=0.25;exitY=1;exitDx=0;exitDy=0;entryX=0;entryY=0;entryDx=0;entryDy=27.5;entryPerimeter=0;" edge="1" parent="WIyWlLk6GJQsqaUBKTNV-1" source="RH_T9AXYIxNcW1EHlBq4-1" target="RH_T9AXYIxNcW1EHlBq4-18">
          <mxGeometry relative="1" as="geometry" />
        </mxCell>
        <mxCell id="RH_T9AXYIxNcW1EHlBq4-36" value="Dead" style="shape=cylinder3;whiteSpace=wrap;html=1;boundedLbl=1;backgroundOutline=1;size=15;" vertex="1" parent="WIyWlLk6GJQsqaUBKTNV-1">
          <mxGeometry x="620" y="530" width="60" height="80" as="geometry" />
        </mxCell>
        <mxCell id="RH_T9AXYIxNcW1EHlBq4-37" value="&lt;p style=&quot;line-height: 80%;&quot;&gt;Soon&lt;br&gt;-to-&lt;br&gt;be&lt;br&gt;Dead&lt;/p&gt;" style="shape=cylinder3;whiteSpace=wrap;html=1;boundedLbl=1;backgroundOutline=1;size=15;" vertex="1" parent="WIyWlLk6GJQsqaUBKTNV-1">
          <mxGeometry x="760" y="530" width="60" height="80" as="geometry" />
        </mxCell>
        <mxCell id="RH_T9AXYIxNcW1EHlBq4-38" value="&quot;Whois&quot;" style="rounded=1;whiteSpace=wrap;html=1;" vertex="1" parent="WIyWlLk6GJQsqaUBKTNV-1">
          <mxGeometry x="720" y="360" width="120" height="40" as="geometry" />
        </mxCell>
        <mxCell id="RH_T9AXYIxNcW1EHlBq4-46" style="edgeStyle=orthogonalEdgeStyle;rounded=0;orthogonalLoop=1;jettySize=auto;html=1;exitX=0.25;exitY=1;exitDx=0;exitDy=0;entryX=0.514;entryY=-0.052;entryDx=0;entryDy=0;entryPerimeter=0;" edge="1" parent="WIyWlLk6GJQsqaUBKTNV-1" source="RH_T9AXYIxNcW1EHlBq4-38" target="RH_T9AXYIxNcW1EHlBq4-36">
          <mxGeometry relative="1" as="geometry" />
        </mxCell>
        <mxCell id="RH_T9AXYIxNcW1EHlBq4-47" style="edgeStyle=orthogonalEdgeStyle;rounded=0;orthogonalLoop=1;jettySize=auto;html=1;exitX=0.75;exitY=1;exitDx=0;exitDy=0;entryX=0.5;entryY=0;entryDx=0;entryDy=0;entryPerimeter=0;" edge="1" parent="WIyWlLk6GJQsqaUBKTNV-1" source="RH_T9AXYIxNcW1EHlBq4-38" target="RH_T9AXYIxNcW1EHlBq4-37">
          <mxGeometry relative="1" as="geometry" />
        </mxCell>
      </root>
    </mxGraphModel>
  </diagram>
</mxfile>
